<svg width="120" height="120" viewBox="0 0 120 120" xmlns="http://www.w3.org/2000/svg">
  <!-- Green background -->
  <rect width="120" height="120" fill="#84c128"/>
  
  <!-- Leaf stem - curved thick white line -->
  <path d="M 30 85 Q 40 80, 50 70 Q 60 60, 65 50 Q 68 45, 70 40 Q 72 35, 73 30" 
        stroke="white" 
        stroke-width="5" 
        fill="none" 
        stroke-linecap="round"/>
  
  <!-- Twelve stars arranged in leaf shape (oval/elliptical arrangement) -->
  <!-- Bottom stars -->
  <path d="M 32 82 L 36 80 L 35 76 L 32 76 L 32 72 L 29 76 L 26 76 L 25 80 Z" fill="white"/>
  <path d="M 42 70 L 46 68 L 45 64 L 42 64 L 42 60 L 39 64 L 36 64 L 35 68 Z" fill="white"/>
  <path d="M 50 58 L 54 56 L 53 52 L 50 52 L 50 48 L 47 52 L 44 52 L 43 56 Z" fill="white"/>
  
  <!-- Middle-left stars -->
  <path d="M 52 50 L 56 48 L 55 44 L 52 44 L 52 40 L 49 44 L 46 44 L 45 48 Z" fill="white"/>
  <path d="M 60 42 L 64 40 L 63 36 L 60 36 L 60 32 L 57 36 L 54 36 L 53 40 Z" fill="white"/>
  <path d="M 68 38 L 72 36 L 71 32 L 68 32 L 68 28 L 65 32 L 62 32 L 61 36 Z" fill="white"/>
  
  <!-- Top stars -->
  <path d="M 70 30 L 74 28 L 73 24 L 70 24 L 70 20 L 67 24 L 64 24 L 63 28 Z" fill="white"/>
  <path d="M 75 28 L 79 26 L 78 22 L 75 22 L 75 18 L 72 22 L 69 22 L 68 26 Z" fill="white"/>
  
  <!-- Right side stars -->
  <path d="M 78 40 L 82 38 L 81 34 L 78 34 L 78 30 L 75 34 L 72 34 L 71 38 Z" fill="white"/>
  <path d="M 70 52 L 74 50 L 73 46 L 70 46 L 70 42 L 67 46 L 64 46 L 63 50 Z" fill="white"/>
  <path d="M 62 65 L 66 63 L 65 59 L 62 59 L 62 55 L 59 59 L 56 59 L 55 63 Z" fill="white"/>
  
  <!-- Additional star on far left for fullness -->
  <path d="M 22 75 L 26 73 L 25 69 L 22 69 L 22 65 L 19 69 L 16 69 L 15 73 Z" fill="white"/>
</svg>

